<svg width="30" height="32" viewBox="0 0 30 32" fill="none" xmlns="http://www.w3.org/2000/svg">
<path d="M0.979907 0.288631C0.69124 0.432964 0.330405 0.938133 0.186072 1.41924C0.0176824 1.99658 -0.0304288 7.00015 0.0176824 16.2856L0.0898493 30.2619L0.667184 30.8874C1.24452 31.5128 1.29263 31.5128 4.82881 31.5128H8.38904L8.79798 30.8633C9.18287 30.2619 9.23098 29.2035 9.35126 19.1723C9.47154 8.87649 9.49559 8.15482 9.88048 8.56376C10.097 8.82837 11.5403 10.7047 13.0799 12.7494C14.6194 14.7942 16.8326 17.7049 17.9632 19.2204C20.8258 22.9731 20.898 23.0934 20.898 24.1037C20.898 25.4749 21.7399 26.0762 22.8465 25.4989C23.2795 25.2584 23.3035 24.8735 23.3035 13.9763V2.69419L24.0492 2.54986C24.9874 2.35741 26.1421 2.35741 26.8638 2.54986L27.393 2.69419V15.7804V28.8667H20.8258C15.293 28.8667 14.1864 28.9148 13.7294 29.2516C13.0799 29.6846 13.0318 30.5746 13.6332 31.1279C14.0421 31.4888 14.86 31.5128 21.4993 31.4647L28.9085 31.3925L29.4136 30.719C29.9188 30.0454 29.9188 29.853 29.991 16.0451C30.015 8.34726 29.991 1.80413 29.9188 1.49141C29.8466 1.20275 29.582 0.745687 29.3174 0.481077C28.8844 0.0480747 28.4995 -3.62396e-05 25.3964 -3.62396e-05C22.7984 -3.62396e-05 21.8361 0.0961857 21.4753 0.336742C21.0423 0.673521 21.0182 1.13058 20.898 9.64627L20.7777 18.619L19.0457 16.3578C18.1075 15.1069 16.9769 13.5673 16.5198 12.9659C14.0181 9.45382 10.7465 5.2922 10.2654 4.95542C9.7121 4.54647 8.89421 4.47431 7.95604 4.71486C6.7292 5.05164 6.70514 5.34031 6.70514 17.5606V28.8667H4.66042H2.61569V15.7804C2.61569 1.03436 2.39919 2.40553 4.63636 2.40553C5.57453 2.40553 6.00753 2.28525 6.2962 1.97252C6.82542 1.39519 6.80137 1.05841 6.22403 0.481077C5.81509 0.0721302 5.4302 -3.62396e-05 3.65008 0.0240192C2.47136 0.0240192 1.29263 0.144299 0.979907 0.288631Z" fill="white"/>
</svg>
